<svg xmlns="http://www.w3.org/2000/svg" viewBox="0 0 900 470" width="900" class="arch-svg" role="img" aria-label="FragmentIQ science, foreground, distance transform, marker NMS, watershed flood, PSD, Rosin-Rammler">
  <style>
    .arch-svg text { font-family: var(--font-sans, Inter, "Segoe UI", system-ui, sans-serif); }
    .arch-svg .mono { font-family: var(--font-mono, ui-monospace, Consolas, monospace); }
    .arch-svg .bx { fill: var(--color-surface-2); stroke: var(--color-border); stroke-width: 1.2; }
    .arch-svg .bx-hi { stroke: var(--color-accent); }
    .arch-svg .bx-good { stroke: var(--color-good); }
    .arch-svg .ttl { fill: var(--color-fg); font-size: 13px; font-weight: 700; }
    .arch-svg .sub { fill: var(--color-fg-subtle); font-size: 10px; }
    .arch-svg .st { fill: var(--color-accent); font-size: 11px; font-weight: 700; }
    .arch-svg .it { fill: var(--color-fg); font-size: 10.5px; }
    .arch-svg .cd { fill: var(--color-accent); font-size: 9px; }
    .arch-svg .eq { fill: var(--color-fg); font-size: 12.5px; }
    .arch-svg .eqi { fill: var(--color-fg); font-size: 12.5px; font-style: italic; }
    .arch-svg .mu { fill: var(--color-fg-subtle); font-size: 9.5px; }
    .arch-svg .flow { fill: none; stroke: var(--color-fg-faint); stroke-width: 1.6; }
  </style>
  <defs>
    <marker id="sc-arrow" viewBox="0 0 8 8" refX="7" refY="4" markerWidth="7" markerHeight="7" orient="auto-start-reverse">
      <path d="M0,0 L8,4 L0,8 z" fill="var(--color-fg-faint)"/>
    </marker>
  </defs>

  <text class="ttl" x="22" y="28">The science, watershed delineation → particle-size distribution → Rosin–Rammler</text>
  <text class="sub" x="22" y="45">frontend/src/frag/ · the same TypeScript runs live in the browser and under Node in the offline bake</text>

  <!-- Stage 1 -->
  <rect class="bx bx-hi" x="16" y="66" width="166" height="104" rx="9"/>
  <text class="st" x="28" y="88">① Foreground</text>
  <text class="it" x="28" y="108">grayscale, threshold</text>
  <text class="mu" x="28" y="124">rock vs dark gaps</text>
  <text class="mu" x="28" y="138">(shadow-robust)</text>
  <text class="cd mono" x="28" y="160">classicalForeground</text>

  <!-- Stage 2 -->
  <rect class="bx bx-hi" x="198" y="66" width="166" height="104" rx="9"/>
  <text class="st" x="210" y="88">② Distance map</text>
  <text class="it" x="210" y="108">2-pass chamfer DT</text>
  <text class="mu" x="210" y="124">peak ≈ fragment</text>
  <text class="mu" x="210" y="138">radius</text>
  <text class="cd mono" x="210" y="160">distanceTransform</text>

  <!-- Stage 3 -->
  <rect class="bx bx-hi" x="380" y="66" width="166" height="104" rx="9"/>
  <text class="st" x="392" y="88">③ Markers + NMS</text>
  <text class="it" x="392" y="108">DT-maxima, one per</text>
  <text class="mu" x="392" y="124">fragment (suppress</text>
  <text class="mu" x="392" y="138">r ≈ 0.85·DT)</text>
  <text class="cd mono" x="392" y="160">delineate · minDist</text>

  <!-- Stage 4 -->
  <rect class="bx bx-hi" x="562" y="66" width="166" height="104" rx="9"/>
  <text class="st" x="574" y="88">④ Watershed flood</text>
  <text class="it" x="574" y="108">descending-DT flood</text>
  <text class="mu" x="574" y="124">→ per-fragment label</text>
  <text class="mu" x="574" y="138">→ area aᵢ</text>
  <text class="cd mono" x="574" y="160">delineate → Delineation</text>

  <!-- Stage 5 -->
  <rect class="bx bx-good" x="744" y="66" width="140" height="104" rx="9"/>
  <text class="st" x="756" y="88" style="fill:var(--color-good)">⑤ PSD + fit</text>
  <text class="it" x="756" y="108">size → % passing</text>
  <text class="mu" x="756" y="124">by mass ∝ dᵢ³</text>
  <text class="cd mono" x="756" y="146">psdFromSizes</text>
  <text class="cd mono" x="756" y="160">fitRR · summarise</text>

  <path class="flow" d="M182,118 H196" marker-end="url(#sc-arrow)"/>
  <path class="flow" d="M364,118 H378" marker-end="url(#sc-arrow)"/>
  <path class="flow" d="M546,118 H560" marker-end="url(#sc-arrow)"/>
  <path class="flow" d="M728,118 H742" marker-end="url(#sc-arrow)"/>

  <!-- equations -->
  <rect class="bx" x="16" y="190" width="430" height="120" rx="9"/>
  <text class="it" x="30" y="212" style="font-weight:700">Equivalent diameter &amp; mass-weighted PSD</text>
  <text class="eqi" x="30" y="240">dᵢ = 2·√(aᵢ/π)·(mm/px)</text>
  <text class="eq" x="30" y="266">% passing(x) = 100 · Σ[dᵢ ≤ x] dᵢ³ ⁄ Σ dᵢ³</text>
  <text class="mu" x="30" y="292">area → circle-equivalent diameter; coarse blocks dominate the mass, so the curve is dᵢ³-weighted.</text>

  <rect class="bx" x="454" y="190" width="430" height="120" rx="9"/>
  <text class="it" x="468" y="212" style="font-weight:700">Rosin–Rammler fit (linearised least squares)</text>
  <text class="eqi" x="468" y="240">P(x) = 1 − exp[ −(x ⁄ xc)ⁿ ]</text>
  <text class="eq" x="468" y="266">ln(−ln(1−P)) = n·ln x − n·ln xc</text>
  <text class="mu" x="468" y="292">linear in (ln x); slope = n (uniformity), intercept → xc (characteristic size). Yields P10/P50/P80.</text>

  <!-- learned lane -->
  <rect class="bx" x="16" y="330" width="430" height="124" rx="9"/>
  <text class="it" x="30" y="352" style="font-weight:700">Classical baseline (always on)</text>
  <text class="mu" x="30" y="374">transparent, deterministic watershed, the</text>
  <text class="mu" x="30" y="392">honest reference. Known bias: over-segments</text>
  <text class="mu" x="30" y="410">touching coarse blocks → P50 reads small.</text>
  <text class="cd mono" x="30" y="436">delineateClassical · analyzeClassical (live)</text>

  <rect class="bx bx-good" x="454" y="330" width="430" height="124" rx="9"/>
  <text class="it" x="468" y="352" style="font-weight:700">Learned lane (ONNX, client-side)</text>
  <text class="mu" x="468" y="374">• frag-edge CNN: P(boundary) per patch refines</text>
  <text class="mu" x="468" y="392">  the foreground → fewer false splits.</text>
  <text class="mu" x="468" y="410">• PSD-bias regressor: corrects the fines tail.</text>
  <text class="cd mono" x="468" y="436">model/learned.py → frag-edge.onnx · fines.onnx</text>
</svg>
